<?xml version="1.0" encoding="UTF-8" standalone="no"?>
<svg
   width="32"
   height="32"
   viewBox="0 0 8.4666668 8.4666666"
   version="1.1"
   id="svg1"
   xmlns="http://www.w3.org/2000/svg"
   xmlns:svg="http://www.w3.org/2000/svg">
  <g
     id="layer1">
    <rect
       style="fill:#000f29"
       width="8.4666662"
       height="8.4666662"
       x="0"
       y="0" />
    <path
       style="fill:#ffffff"
       d="M 0.5192445,8.1569518 H 1.1887614 V 7.1393746 H 1.6986841 L 2.2124994,8.1569518 H 2.9598671 L 2.3643084,7.0420611 C 2.6718191,6.9019297 2.8742312,6.6177743 2.8742312,6.2752307 c 0,-0.5060302 -0.4009316,-0.8439604 -0.9614574,-0.8439604 H 0.5192445 Z M 1.1887614,6.594419 V 5.9793977 h 0.6617318 c 0.2063046,0 0.346436,0.1245613 0.346436,0.3075107 0,0.1829493 -0.1401314,0.3075106 -0.346436,0.3075106 z m 3.183288,1.5764787 c 0.4359645,0 0.8836066,-0.2063046 1.1366217,-0.5254929 L 5.0688141,7.2133329 c -0.1829494,0.2257673 -0.4087167,0.338651 -0.6734094,0.338651 -0.4554272,0 -0.7979707,-0.338651 -0.7979707,-0.7824006 0,-0.4515346 0.3347584,-0.7901856 0.7746154,-0.7901856 0.2763704,0 0.5138153,0.1206687 0.7045498,0.3620062 L 5.5281338,5.8976544 C 5.2790112,5.5745735 4.8235841,5.3643764 4.3720494,5.3643764 c -0.8252185,0 -1.463595,0.6111288 -1.463595,1.4052069 0,0.7901856 0.634484,1.4013144 1.463595,1.4013144 z M 5.5818151,8.152505 H 7.7186189 V 7.5403062 H 6.2513319 V 5.4371368 H 5.5818151 Z"
       id="text9"
       transform="scale(1.0274964,0.97323942)"
       aria-label="RCL" />
  </g>
</svg>
