<?xml version="1.0" encoding="UTF-8" standalone="no"?>
<!-- Created with Inkscape (http://www.inkscape.org/) -->

<svg
   width="32"
   height="32"
   viewBox="0 0 8.4666668 8.4666666"
   version="1.1"
   id="svg1"
   inkscape:version="1.3.2 (091e20ef0f, 2023-11-25, custom)"
   sodipodi:docname="icon.svg"
   xmlns:inkscape="http://www.inkscape.org/namespaces/inkscape"
   xmlns:sodipodi="http://sodipodi.sourceforge.net/DTD/sodipodi-0.dtd"
   xmlns="http://www.w3.org/2000/svg"
   xmlns:svg="http://www.w3.org/2000/svg">
  <sodipodi:namedview
     id="namedview1"
     pagecolor="#ffffff"
     bordercolor="#666666"
     borderopacity="1.0"
     inkscape:showpageshadow="2"
     inkscape:pageopacity="0.0"
     inkscape:pagecheckerboard="0"
     inkscape:deskcolor="#d1d1d1"
     inkscape:document-units="mm"
     showgrid="true"
     inkscape:zoom="22.627417"
     inkscape:cx="9.2807765"
     inkscape:cy="14.230524"
     inkscape:window-width="1920"
     inkscape:window-height="1014"
     inkscape:window-x="0"
     inkscape:window-y="0"
     inkscape:window-maximized="1"
     inkscape:current-layer="layer1">
    <inkscape:grid
       id="grid1"
       units="px"
       originx="0"
       originy="0"
       spacingx="0.26458334"
       spacingy="0.26458333"
       empcolor="#3f3fff"
       empopacity="0.25098039"
       color="#3f3fff"
       opacity="0.1254902"
       empspacing="8"
       dotted="false"
       gridanglex="30"
       gridanglez="30"
       visible="true" />
  </sodipodi:namedview>
  <defs
     id="defs1" />
  <g
     inkscape:label="Layer 1"
     inkscape:groupmode="layer"
     id="layer1">
    <rect
       style="fill:#033563;fill-opacity:1;fill-rule:evenodd;stroke:none;stroke-width:0.25;stroke-linecap:square;stroke-linejoin:round;stroke-opacity:1;paint-order:markers stroke fill"
       id="rect5"
       width="8.4666662"
       height="8.4666662"
       x="0"
       y="0" />
    <path
       style="font-weight:900;font-size:5.39952px;line-height:125%;font-family:'Red Hat Display';-inkscape-font-specification:'Red Hat Display Heavy';text-align:center;letter-spacing:0px;word-spacing:0px;text-anchor:middle;fill:#ffffff;fill-opacity:1;stroke-width:0.470571px"
       d="M 4.2371835,7.9344077 H 7.9265772 L 7.4327192,6.8848911 5.2813067,6.8919822 5.3017611,5.298592 4.2333333,4.2333333 Z"
       id="text1-3-4"
       aria-label="L"
       sodipodi:nodetypes="ccccccc" />
    <path
       id="path7"
       style="fill:#6cb2ff;fill-opacity:1;fill-rule:evenodd;stroke:none;stroke-width:0.10052;stroke-linecap:square;stroke-linejoin:round;stroke-dasharray:none;stroke-opacity:1;paint-order:markers stroke fill"
       d="M 4.4979167 2.1166667 A 2.3812499 2.3812499 0 0 0 2.1166667 4.4979167 A 2.3812499 2.3812499 0 0 0 4.4979167 6.8791667 A 2.3812499 2.3812499 0 0 0 6.7329224 5.3004517 L 5.6435832 4.9164958 A 1.2372572 1.2372572 0 0 1 4.4875814 5.7216146 A 1.2372572 1.2372572 0 0 1 3.2504476 4.4844808 A 1.2372572 1.2372572 0 0 1 4.4875814 3.2468302 A 1.2372572 1.2372572 0 0 1 5.3769328 3.624585 L 6.1841187 2.8173991 A 2.3812499 2.3812499 0 0 0 4.4979167 2.1166667 z " />
    <path
       style="font-weight:900;font-size:5.27823px;line-height:125%;font-family:'Red Hat Display';-inkscape-font-specification:'Red Hat Display Heavy';text-align:center;letter-spacing:0px;word-spacing:0px;text-anchor:middle;fill:#ffffff;fill-opacity:1;stroke-width:0.395866px"
       d="m 0.52724838,4.2295654 1.06006622,-1.656e-4 0.00107,-1.0566364 0.53136,-4.859e-4 0.7142414,1.0560288 1.3993473,0.00503 L 3.1711546,2.9072342 C 3.6040503,2.6567518 3.8176744,2.2927702 3.8161438,1.7403522 3.8142471,1.0558003 3.1832936,0.52321887 2.4214354,0.52413113 l -1.89077436,0.002264 z m 1.06019872,-2.1176201 -4.42e-5,-0.5256977 0.7538322,-0.0012 c 0.2804061,-4.477e-4 0.4113982,0.048367 0.4113982,0.2367184 0,0.2451514 -0.1197821,0.2912699 -0.4001883,0.2909785 z"
       id="text1-3"
       sodipodi:nodetypes="cccccccssccccsssc" />
  </g>
</svg>
